<mxfile host="65bd71144e">
    <diagram id="iu8UTEItTF_XXB0HUZB4" name="Page-1">
        <mxGraphModel dx="1685" dy="467" grid="1" gridSize="10" guides="1" tooltips="1" connect="1" arrows="1" fold="1" page="1" pageScale="1" pageWidth="850" pageHeight="1100" math="0" shadow="0">
            <root>
                <mxCell id="0"/>
                <mxCell id="1" parent="0"/>
                <mxCell id="2" value="Actor" style="shape=umlActor;verticalLabelPosition=bottom;verticalAlign=top;html=1;" parent="1" vertex="1">
                    <mxGeometry x="101" y="29" width="30" height="60" as="geometry"/>
                </mxCell>
                <mxCell id="7" value="Tienda&amp;nbsp;" style="shape=umlLifeline;perimeter=lifelinePerimeter;whiteSpace=wrap;html=1;container=1;collapsible=0;recursiveResize=0;outlineConnect=0;size=50;" parent="1" vertex="1">
                    <mxGeometry x="188" y="49" width="104" height="251" as="geometry"/>
                </mxCell>
                <mxCell id="8" value="Carrito" style="shape=umlLifeline;perimeter=lifelinePerimeter;whiteSpace=wrap;html=1;container=1;collapsible=0;recursiveResize=0;outlineConnect=0;size=50;" parent="1" vertex="1">
                    <mxGeometry x="600" y="50" width="100" height="230" as="geometry"/>
                </mxCell>
                <mxCell id="129" value="" style="html=1;points=[];perimeter=orthogonalPerimeter;" parent="8" vertex="1">
                    <mxGeometry x="45" y="70" width="10" height="153.78" as="geometry"/>
                </mxCell>
                <mxCell id="9" value="Catalogo" style="shape=umlLifeline;perimeter=lifelinePerimeter;whiteSpace=wrap;html=1;container=1;collapsible=0;recursiveResize=0;outlineConnect=0;size=50;" parent="1" vertex="1">
                    <mxGeometry x="325" y="50" width="100" height="230" as="geometry"/>
                </mxCell>
                <mxCell id="10" value="Artículos" style="shape=umlLifeline;perimeter=lifelinePerimeter;whiteSpace=wrap;html=1;container=1;collapsible=0;recursiveResize=0;outlineConnect=0;size=50;" parent="1" vertex="1">
                    <mxGeometry x="460" y="50" width="100" height="230" as="geometry"/>
                </mxCell>
                <mxCell id="11" value="" style="shape=umlLifeline;perimeter=lifelinePerimeter;whiteSpace=wrap;html=1;container=0;collapsible=0;recursiveResize=0;outlineConnect=0;size=0;" parent="1" vertex="1">
                    <mxGeometry x="-254" y="120" width="740" height="150" as="geometry"/>
                </mxCell>
                <mxCell id="124" value="" style="html=1;points=[];perimeter=orthogonalPerimeter;" parent="1" vertex="1">
                    <mxGeometry x="235" y="130" width="10" height="170" as="geometry"/>
                </mxCell>
                <mxCell id="125" value="" style="html=1;points=[];perimeter=orthogonalPerimeter;" parent="1" vertex="1">
                    <mxGeometry x="111" y="138" width="10" height="122" as="geometry"/>
                </mxCell>
                <mxCell id="78" value="Redireccionador" style="shape=umlFrame;tabWidth=110;tabHeight=30;tabPosition=left;html=1;boundedLbl=1;labelInHeader=1;width=116;height=29;movable=1;resizable=1;rotatable=1;deletable=1;editable=1;connectable=1;" parent="1" vertex="1">
                    <mxGeometry x="-40" y="120" width="740" height="200" as="geometry"/>
                </mxCell>
                <mxCell id="79" value="[IF seleccion_menu = 2] " style="text" parent="78" vertex="1">
                    <mxGeometry width="100" height="20" relative="1" as="geometry">
                        <mxPoint x="8" y="33" as="offset"/>
                    </mxGeometry>
                </mxCell>
                <mxCell id="103" value="" style="html=1;verticalAlign=bottom;labelBackgroundColor=none;endArrow=open;endFill=0;dashed=1;" parent="1" edge="1">
                    <mxGeometry width="160" relative="1" as="geometry">
                        <mxPoint x="642.61" y="180" as="sourcePoint"/>
                        <mxPoint x="245" y="180" as="targetPoint"/>
                    </mxGeometry>
                </mxCell>
                <mxCell id="104" value="draw_carrito()" style="edgeLabel;html=1;align=center;verticalAlign=middle;resizable=0;points=[];" parent="103" vertex="1" connectable="0">
                    <mxGeometry x="-0.2418" y="-2" relative="1" as="geometry">
                        <mxPoint x="-63" y="-6" as="offset"/>
                    </mxGeometry>
                </mxCell>
                <mxCell id="134" value="Loop&lt;br&gt;respuesta != si" style="shape=umlFrame;whiteSpace=wrap;html=1;fontSize=9;width=89;height=25;" parent="1" vertex="1">
                    <mxGeometry x="11" y="195" width="290" height="70" as="geometry"/>
                </mxCell>
                <mxCell id="132" value="" style="endArrow=open;endFill=1;endSize=12;html=1;exitX=0.021;exitY=0.372;exitDx=0;exitDy=0;exitPerimeter=0;" parent="1" edge="1">
                    <mxGeometry width="160" relative="1" as="geometry">
                        <mxPoint x="235.2099999999998" y="230.24" as="sourcePoint"/>
                        <mxPoint x="120" y="230" as="targetPoint"/>
                    </mxGeometry>
                </mxCell>
                <mxCell id="133" value="&lt;font style=&quot;font-size: 9px;&quot;&gt;Regresar a menu?&lt;/font&gt;" style="text;html=1;align=center;verticalAlign=middle;resizable=0;points=[];autosize=1;strokeColor=none;fillColor=none;" parent="1" vertex="1">
                    <mxGeometry x="130" y="206" width="100" height="30" as="geometry"/>
                </mxCell>
            </root>
        </mxGraphModel>
    </diagram>
</mxfile>